<?xml version="1.0" standalone="no"?>
<!DOCTYPE svg PUBLIC "-//W3C//DTD SVG 20010904//EN"
 "http://www.w3.org/TR/2001/REC-SVG-20010904/DTD/svg10.dtd">
<svg version="1.0" xmlns="http://www.w3.org/2000/svg"
 width="290.000000pt" height="290.000000pt" viewBox="0 0 290.000000 290.000000"
 preserveAspectRatio="xMidYMid meet">
<metadata>
Created by potrace 1.14, written by Peter Selinger 2001-2017
</metadata>
<g transform="translate(0.000000,290.000000) scale(0.100000,-0.100000)"
fill="#000000" stroke="none">
<path d="M1309 2895 c-2 -2 -31 -6 -63 -9 -32 -4 -62 -8 -65 -10 -3 -2 -23 -7
-43 -10 -73 -11 -255 -79 -359 -133 -162 -83 -333 -221 -439 -352 -19 -24 -40
-48 -45 -55 -10 -11 -66 -95 -101 -151 -52 -85 -112 -231 -144 -352 -40 -153
-49 -235 -45 -403 4 -155 5 -164 30 -283 37 -180 136 -397 250 -549 98 -130
200 -228 356 -341 121 -87 395 -202 529 -221 14 -2 50 -8 80 -12 65 -10 302
-11 380 -2 112 13 251 48 350 88 70 27 214 102 218 112 2 4 8 8 14 8 26 0 190
131 281 225 212 220 364 533 395 815 8 78 9 329 0 385 -73 484 -363 887 -793
1103 -131 65 -274 111 -440 138 -36 7 -341 14 -346 9z"/>
</g>
</svg>
